<svg width="546" height="197" viewBox="0 0 546 197" fill="none" xmlns="http://www.w3.org/2000/svg">
<path d="M217.823 61.385C215.256 61.385 212.964 61 210.948 60.23C208.931 59.46 207.354 58.3783 206.218 56.985C205.081 55.555 204.513 53.9233 204.513 52.09C204.513 51.76 204.549 51.265 204.623 50.605H215.018C214.981 51.6317 215.293 52.42 215.953 52.97C216.613 53.52 217.529 53.795 218.703 53.795C219.619 53.795 220.371 53.6117 220.958 53.245C221.581 52.8783 221.893 52.4017 221.893 51.815C221.893 51.1183 221.508 50.5867 220.738 50.22C219.968 49.8167 218.684 49.3217 216.888 48.735C214.798 48.075 213.074 47.4333 211.718 46.81C210.361 46.1867 209.169 45.27 208.143 44.06C207.153 42.85 206.658 41.2917 206.658 39.385C206.658 37.5517 207.189 35.9017 208.253 34.435C209.353 32.9683 210.893 31.8317 212.873 31.025C214.853 30.1817 217.144 29.76 219.748 29.76C222.534 29.76 224.936 30.2367 226.953 31.19C229.006 32.1067 230.528 33.39 231.518 35.04C232.544 36.69 233.003 38.5233 232.893 40.54H223.213C223.249 39.55 222.956 38.78 222.333 38.23C221.709 37.6433 220.811 37.35 219.638 37.35C218.794 37.35 218.098 37.5333 217.548 37.9C216.998 38.2667 216.723 38.7433 216.723 39.33C216.723 40.0267 217.108 40.5767 217.878 40.98C218.684 41.3833 220.023 41.8967 221.893 42.52C223.946 43.18 225.651 43.84 227.008 44.5C228.401 45.1233 229.593 46.0217 230.583 47.195C231.573 48.3317 232.068 49.7983 232.068 51.595C232.068 54.6383 230.748 57.04 228.108 58.8C225.468 60.5233 222.039 61.385 217.823 61.385ZM249.963 61.385C247.286 61.385 244.903 60.8533 242.813 59.79C240.759 58.7267 239.164 57.2233 238.028 55.28C236.891 53.3367 236.323 51.0633 236.323 48.46C236.323 44.94 237.148 41.75 238.798 38.89C240.484 36.03 242.794 33.7933 245.728 32.18C248.661 30.5667 251.943 29.76 255.573 29.76C258.249 29.76 260.614 30.2917 262.668 31.355C264.758 32.4183 266.371 33.94 267.508 35.92C268.681 37.8633 269.268 40.1367 269.268 42.74C269.268 46.2967 268.424 49.505 266.738 52.365C265.051 55.1883 262.741 57.4067 259.808 59.02C256.874 60.5967 253.593 61.385 249.963 61.385ZM251.613 52.09C252.896 52.09 254.033 51.6867 255.023 50.88C256.049 50.0733 256.819 49.0283 257.333 47.745C257.883 46.4617 258.158 45.1417 258.158 43.785C258.158 42.245 257.754 41.0717 256.948 40.265C256.178 39.4583 255.169 39.055 253.923 39.055C252.603 39.055 251.448 39.4583 250.458 40.265C249.504 41.0717 248.753 42.1167 248.203 43.4C247.689 44.6833 247.433 46.0217 247.433 47.415C247.433 48.955 247.818 50.1283 248.588 50.935C249.358 51.705 250.366 52.09 251.613 52.09ZM271.563 45.545C272.15 42.3183 273.305 39.5317 275.028 37.185C276.788 34.8017 278.952 32.9683 281.518 31.685C284.122 30.4017 286.945 29.76 289.988 29.76C293.912 29.76 297.028 30.8417 299.338 33.005C301.648 35.1317 302.858 38.12 302.968 41.97H291.473C291.18 39.9533 290.062 38.945 288.118 38.945C286.762 38.945 285.588 39.5133 284.598 40.65C283.608 41.75 282.93 43.3817 282.563 45.545C282.417 46.2783 282.343 47.0117 282.343 47.745C282.343 49.2117 282.655 50.33 283.278 51.1C283.902 51.8333 284.745 52.2 285.808 52.2C287.788 52.2 289.237 51.1917 290.153 49.175H301.648C300.218 52.9883 297.963 55.9767 294.883 58.14C291.84 60.3033 288.338 61.385 284.378 61.385C280.345 61.385 277.137 60.285 274.753 58.085C272.407 55.885 271.233 52.86 271.233 49.01C271.233 47.91 271.343 46.755 271.563 45.545ZM315.422 27.285C313.735 27.285 312.397 26.8633 311.407 26.02C310.453 25.1767 309.977 24.095 309.977 22.775C309.977 21.6017 310.288 20.52 310.912 19.53C311.572 18.5033 312.452 17.6967 313.552 17.11C314.688 16.4867 315.953 16.175 317.347 16.175C319.033 16.175 320.353 16.615 321.307 17.495C322.297 18.3383 322.792 19.4383 322.792 20.795C322.792 21.9683 322.462 23.05 321.802 24.04C321.178 25.03 320.298 25.8183 319.162 26.405C318.025 26.9917 316.778 27.285 315.422 27.285ZM320.262 30.145L314.817 61H303.982L309.482 30.145H320.262ZM321.89 45.545C322.477 42.355 323.559 39.5683 325.135 37.185C326.712 34.8017 328.6 32.9683 330.8 31.685C333.037 30.4017 335.384 29.76 337.84 29.76C339.967 29.76 341.727 30.1817 343.12 31.025C344.514 31.8683 345.485 33.005 346.035 34.435L346.805 30.145H357.585L352.14 61H341.36L342.13 56.71C341.067 58.14 339.674 59.2767 337.95 60.12C336.227 60.9633 334.32 61.385 332.23 61.385C329.004 61.385 326.419 60.3217 324.475 58.195C322.532 56.0317 321.56 53.0983 321.56 49.395C321.56 48.185 321.67 46.9017 321.89 45.545ZM344.11 45.545C344.22 44.995 344.275 44.4817 344.275 44.005C344.275 42.465 343.835 41.2733 342.955 40.43C342.112 39.5867 341.012 39.165 339.655 39.165C338.042 39.165 336.594 39.7333 335.31 40.87C334.027 41.97 333.22 43.5283 332.89 45.545C332.78 46.095 332.725 46.6267 332.725 47.14C332.725 48.68 333.147 49.8717 333.99 50.715C334.87 51.5583 335.989 51.98 337.345 51.98C338.959 51.98 340.407 51.4117 341.69 50.275C342.974 49.1383 343.78 47.5617 344.11 45.545ZM376.323 20.3L369.118 61H358.283L365.488 20.3H376.323Z" fill="#3DA294"/>
<path d="M184.263 115.984C184.935 113.584 186.327 111.952 188.439 111.088C190.647 110.224 192.807 110.032 194.919 110.512C197.127 110.896 198.951 111.904 200.391 113.536C201.831 115.168 202.215 117.232 201.543 119.728C200.295 124.144 198.519 128.176 196.215 131.824C194.007 135.376 191.367 138.448 188.295 141.04C185.223 143.536 181.815 145.504 178.071 146.944C174.327 148.288 170.343 148.96 166.119 148.96C162.759 148.96 159.735 148.528 157.047 147.664C152.727 152.176 147.783 155.392 142.215 157.312C136.743 159.328 131.271 160.336 125.799 160.336C122.919 160.336 120.087 160.048 117.303 159.472C114.615 158.992 112.071 158.224 109.671 157.168C107.271 156.208 105.063 155.008 103.047 153.568C101.127 152.128 99.5433 150.496 98.2953 148.672C97.7193 151.648 96.6633 154 95.1273 155.728C93.6873 157.552 92.0073 158.8 90.0873 159.472C88.2633 160.144 86.3913 160.288 84.4713 159.904C82.5512 159.616 80.9672 158.848 79.7192 157.6C78.3752 156.448 77.4632 154.864 76.9832 152.848C76.5032 150.832 76.7912 148.432 77.8472 145.648L115.575 38.944C116.535 35.68 118.215 33.28 120.615 31.744C123.015 30.208 125.415 29.44 127.815 29.44C130.311 29.344 132.471 29.968 134.295 31.312C136.215 32.656 137.175 34.528 137.175 36.928C141.303 34.912 145.143 33.856 148.695 33.76C152.247 33.664 154.983 33.712 156.903 33.904C160.071 34.192 163.047 34.96 165.831 36.208C168.711 37.456 171.207 39.136 173.319 41.248C175.527 43.36 177.255 45.904 178.503 48.88C179.847 51.76 180.519 55.024 180.519 58.672C180.519 61.456 180.135 64.288 179.367 67.168C178.599 70.048 177.495 72.832 176.055 75.52C174.615 78.208 172.887 80.704 170.871 83.008C168.855 85.312 166.647 87.28 164.247 88.912C167.223 92.08 169.335 95.536 170.583 99.28C171.927 102.928 172.647 106.624 172.743 110.368C172.839 114.112 172.359 117.76 171.303 121.312C170.343 124.864 169.047 128.032 167.415 130.816H167.559C171.591 130.816 174.999 129.472 177.783 126.784C180.567 124.096 182.727 120.496 184.263 115.984ZM132.711 74.224C134.151 73.648 135.639 73.36 137.175 73.36C138.711 73.264 140.151 73.312 141.495 73.504C142.935 73.696 144.183 74.032 145.239 74.512C146.391 74.992 147.207 75.424 147.687 75.808C149.415 75.136 150.855 74.224 152.007 73.072C153.159 71.824 154.071 70.576 154.743 69.328C155.415 67.984 155.895 66.688 156.183 65.44C156.471 64.096 156.615 62.896 156.615 61.84C156.615 59.44 155.751 57.568 154.023 56.224C152.295 54.784 150.183 53.968 147.687 53.776C146.055 53.776 144.375 53.968 142.647 54.352C140.919 54.736 139.191 55.36 137.463 56.224C135.831 57.088 134.295 58.192 132.855 59.536C131.415 60.88 130.263 62.464 129.399 64.288L112.119 112.096C113.943 111.328 116.103 110.752 118.599 110.368C121.095 109.984 123.495 109.792 125.799 109.792C130.695 109.888 135.015 110.8 138.759 112.528C142.599 114.16 145.815 116.224 148.407 118.72C150.039 114.112 150.471 110.272 149.703 107.2C148.935 104.128 147.159 102.256 144.375 101.584C143.031 102.064 141.399 102.352 139.479 102.448C137.559 102.544 135.591 102.304 133.575 101.728C131.655 101.152 129.831 100.144 128.103 98.704C126.471 97.168 125.223 95.104 124.359 92.512C123.879 90.496 123.783 88.528 124.071 86.608C124.359 84.592 124.887 82.768 125.655 81.136C126.519 79.504 127.575 78.112 128.823 76.96C130.071 75.712 131.367 74.8 132.711 74.224ZM124.215 142.192C126.807 142.192 129.543 141.616 132.423 140.464C135.303 139.312 137.847 137.488 140.055 134.992C138.135 133.072 136.119 131.44 134.007 130.096C131.991 128.656 129.495 127.936 126.519 127.936C123.735 127.936 121.431 128.512 119.607 129.664C117.879 130.816 116.727 132.352 116.151 134.272C115.959 134.752 115.863 135.472 115.863 136.432C115.863 138.064 116.583 139.456 118.023 140.608C119.463 141.664 121.527 142.192 124.215 142.192ZM261.59 117.28C262.454 114.496 263.99 112.624 266.198 111.664C268.502 110.704 270.71 110.464 272.822 110.944C275.03 111.424 276.806 112.528 278.15 114.256C279.59 115.888 279.878 118 279.014 120.592C276.422 128.08 273.542 134.32 270.374 139.312C267.206 144.208 263.894 148.144 260.438 151.12C256.982 154 253.478 156.016 249.926 157.168C246.374 158.416 242.87 159.04 239.414 159.04C235.094 159.04 231.11 158.128 227.462 156.304C223.814 154.576 220.934 152.176 218.822 149.104C216.134 151.984 212.966 154.384 209.318 156.304C205.766 158.224 201.83 159.184 197.51 159.184C194.438 159.184 191.606 158.704 189.014 157.744C186.422 156.784 184.118 155.44 182.102 153.712C180.182 151.984 178.694 149.92 177.638 147.52C176.486 145.12 175.91 142.48 175.91 139.6C175.91 137.104 176.342 134.56 177.206 131.968L194.918 82.432C195.782 79.936 196.982 78.064 198.518 76.816C200.15 75.472 201.83 74.656 203.558 74.368C205.382 74.08 207.158 74.224 208.886 74.8C210.614 75.376 212.054 76.336 213.206 77.68C214.454 78.928 215.27 80.512 215.654 82.432C216.038 84.256 215.798 86.32 214.934 88.624L198.374 133.984C197.894 135.616 197.654 136.96 197.654 138.016C197.654 140.416 198.758 141.616 200.966 141.616C202.406 141.616 203.894 141.232 205.43 140.464C206.966 139.696 208.502 138.688 210.038 137.44C211.574 136.096 212.966 134.56 214.214 132.832C215.558 131.104 216.758 129.232 217.814 127.216L233.654 82.576C234.998 78.832 237.014 76.384 239.702 75.232C242.39 73.984 244.982 73.792 247.478 74.656C249.974 75.424 251.942 77.008 253.382 79.408C254.822 81.712 254.966 84.496 253.814 87.76L236.678 136.288C236.39 137.056 236.246 137.776 236.246 138.448C236.246 139.504 236.63 140.368 237.398 141.04C238.166 141.616 239.222 141.904 240.566 141.904C243.83 141.904 247.334 139.984 251.078 136.144C254.822 132.208 258.326 125.92 261.59 117.28ZM337.055 116.992C337.919 114.304 339.503 112.432 341.807 111.376C344.111 110.224 346.367 109.888 348.575 110.368C350.879 110.752 352.703 111.808 354.047 113.536C355.391 115.264 355.535 117.568 354.479 120.448C351.983 127.456 349.151 133.408 345.983 138.304C342.911 143.2 339.599 147.184 336.047 150.256C332.591 153.232 328.991 155.392 325.247 156.736C321.503 158.08 317.807 158.752 314.159 158.752C311.087 158.752 308.159 158.272 305.375 157.312C302.591 156.448 300.095 155.152 297.887 153.424C295.775 151.696 294.095 149.584 292.847 147.088C291.599 144.496 290.975 141.52 290.975 138.16C290.975 134.992 291.599 131.824 292.847 128.656L303.071 100C303.263 99.328 303.407 98.704 303.503 98.128C303.695 97.456 303.791 96.88 303.791 96.4C303.791 95.056 303.359 94 302.495 93.232C301.727 92.368 300.671 91.936 299.327 91.936C297.311 91.936 295.103 92.8 292.703 94.528C290.399 96.256 288.287 98.944 286.367 102.592C285.119 106.048 283.775 109.792 282.335 113.824C280.991 117.76 279.599 121.792 278.159 125.92C276.719 129.952 275.279 133.984 273.839 138.016C272.399 141.952 271.055 145.648 269.807 149.104C269.039 151.408 267.887 153.28 266.351 154.72C264.815 156.16 263.135 157.216 261.311 157.888C259.583 158.56 257.807 158.8 255.983 158.608C254.159 158.512 252.623 157.984 251.375 157.024C250.031 156.16 249.071 154.912 248.495 153.28C247.919 151.552 247.967 149.488 248.639 147.088L272.687 79.696C273.263 77.68 274.415 76.192 276.143 75.232C277.871 74.272 279.695 73.792 281.615 73.792C283.631 73.696 285.455 74.032 287.087 74.8C288.815 75.568 289.919 76.624 290.399 77.968C294.239 75.76 298.847 74.656 304.223 74.656C307.103 74.656 309.839 75.136 312.431 76.096C315.023 77.056 317.279 78.4 319.199 80.128C321.119 81.76 322.655 83.776 323.807 86.176C324.959 88.576 325.535 91.216 325.535 94.096C325.535 96.4 325.007 99.04 323.951 102.016L324.095 101.872L312.719 133.984C312.239 135.616 311.999 136.816 311.999 137.584C311.999 140.176 313.343 141.472 316.031 141.472C319.391 141.472 322.943 139.552 326.687 135.712C330.431 131.872 333.887 125.632 337.055 116.992ZM402.055 115.84C402.919 113.248 404.455 111.52 406.663 110.656C408.967 109.792 411.175 109.648 413.287 110.224C415.399 110.8 417.127 112 418.471 113.824C419.815 115.552 420.007 117.712 419.047 120.304C416.743 126.832 413.767 132.496 410.119 137.296C406.471 142.096 402.343 146.08 397.735 149.248C393.223 152.416 388.375 154.768 383.191 156.304C378.007 157.84 372.775 158.608 367.495 158.608C362.215 158.608 357.367 157.888 352.951 156.448C348.631 155.008 344.887 153.04 341.719 150.544C338.647 148.048 336.247 145.072 334.519 141.616C332.791 138.064 331.927 134.224 331.927 130.096C331.927 126.832 332.503 123.472 333.655 120.016L341.863 95.824C343.111 92.08 344.791 88.816 346.903 86.032C349.111 83.248 351.511 80.992 354.103 79.264C356.791 77.44 359.623 76.096 362.599 75.232C365.671 74.368 368.743 73.936 371.815 73.936C375.751 73.936 379.303 74.8 382.471 76.528C385.735 78.256 388.327 80.608 390.247 83.584C392.263 86.56 393.463 89.968 393.847 93.808C394.327 97.648 393.799 101.728 392.263 106.048C390.631 110.272 388.375 113.008 385.495 114.256C382.711 115.408 380.071 115.552 377.575 114.688C375.175 113.824 373.351 112.24 372.103 109.936C370.855 107.536 370.951 104.896 372.391 102.016C373.735 99.52 374.215 97.36 373.831 95.536C373.447 93.712 372.151 92.704 369.943 92.512C368.695 92.416 367.447 92.896 366.199 93.952C364.951 94.912 363.991 96.304 363.319 98.128V97.984L354.391 123.04C353.815 124.96 353.527 126.688 353.527 128.224C353.527 131.872 354.967 134.944 357.847 137.44C360.823 139.936 364.807 141.184 369.799 141.184C372.487 141.184 375.319 140.752 378.295 139.888C381.367 138.928 384.343 137.44 387.223 135.424C390.103 133.408 392.839 130.816 395.431 127.648C398.023 124.384 400.231 120.448 402.055 115.84ZM478.846 116.704C479.71 113.824 481.294 111.904 483.598 110.944C485.902 109.984 488.11 109.744 490.222 110.224C492.43 110.704 494.206 111.856 495.55 113.68C496.894 115.408 497.134 117.52 496.27 120.016C493.678 127.504 490.798 133.744 487.63 138.736C484.462 143.632 481.15 147.568 477.694 150.544C474.238 153.424 470.686 155.44 467.038 156.592C463.486 157.84 459.982 158.464 456.526 158.464C453.454 158.464 450.478 158.032 447.598 157.168C444.814 156.304 442.318 155.008 440.11 153.28C437.902 151.552 436.126 149.392 434.782 146.8C433.438 144.208 432.766 141.232 432.766 137.872C432.766 134.992 433.342 131.824 434.494 128.368V128.512L444.862 98.992C445.246 98.224 445.438 97.36 445.438 96.4C445.438 95.056 444.958 93.952 443.998 93.088C443.134 92.128 441.982 91.648 440.542 91.648C438.334 91.648 436.078 92.56 433.774 94.384C431.566 96.208 429.694 98.512 428.158 101.296L410.878 149.824C409.438 153.664 407.374 156.16 404.686 157.312C401.998 158.56 399.454 158.752 397.054 157.888C394.654 157.024 392.782 155.248 391.438 152.56C390.094 149.776 390.142 146.368 391.582 142.336L425.278 48.016C426.238 44.944 427.534 42.544 429.166 40.816C430.798 39.088 432.526 37.984 434.35 37.504C436.174 36.928 437.95 36.928 439.678 37.504C441.406 37.984 442.798 38.944 443.854 40.384C445.006 41.728 445.726 43.504 446.014 45.712C446.302 47.92 445.87 50.416 444.718 53.2L436.942 75.952C439.822 74.704 442.894 74.08 446.158 74.08C449.038 74.08 451.726 74.608 454.222 75.664C456.814 76.72 459.022 78.16 460.846 79.984C462.766 81.808 464.254 83.968 465.31 86.464C466.366 88.96 466.894 91.648 466.894 94.528C466.894 97.024 466.462 99.616 465.598 102.304L453.79 135.712C453.502 136.288 453.358 136.912 453.358 137.584C453.358 138.64 453.742 139.552 454.51 140.32C455.374 140.992 456.478 141.328 457.822 141.328C461.086 141.328 464.59 139.408 468.334 135.568C472.174 131.632 475.678 125.344 478.846 116.704Z" fill="#F9A27D" fill-opacity="0.45"/>
<path d="M180.263 123.984C180.935 121.584 182.327 119.952 184.439 119.088C186.647 118.224 188.807 118.032 190.919 118.512C193.127 118.896 194.951 119.904 196.391 121.536C197.831 123.168 198.215 125.232 197.543 127.728C196.295 132.144 194.519 136.176 192.215 139.824C190.007 143.376 187.367 146.448 184.295 149.04C181.223 151.536 177.815 153.504 174.071 154.944C170.327 156.288 166.343 156.96 162.119 156.96C158.759 156.96 155.735 156.528 153.047 155.664C148.727 160.176 143.783 163.392 138.215 165.312C132.743 167.328 127.271 168.336 121.799 168.336C118.919 168.336 116.087 168.048 113.303 167.472C110.615 166.992 108.071 166.224 105.671 165.168C103.271 164.208 101.063 163.008 99.0473 161.568C97.1273 160.128 95.5433 158.496 94.2953 156.672C93.7193 159.648 92.6633 162 91.1273 163.728C89.6873 165.552 88.0073 166.8 86.0873 167.472C84.2633 168.144 82.3913 168.288 80.4713 167.904C78.5512 167.616 76.9672 166.848 75.7192 165.6C74.3752 164.448 73.4632 162.864 72.9832 160.848C72.5032 158.832 72.7912 156.432 73.8472 153.648L111.575 46.944C112.535 43.68 114.215 41.28 116.615 39.744C119.015 38.208 121.415 37.44 123.815 37.44C126.311 37.344 128.471 37.968 130.295 39.312C132.215 40.656 133.175 42.528 133.175 44.928C137.303 42.912 141.143 41.856 144.695 41.76C148.247 41.664 150.983 41.712 152.903 41.904C156.071 42.192 159.047 42.96 161.831 44.208C164.711 45.456 167.207 47.136 169.319 49.248C171.527 51.36 173.255 53.904 174.503 56.88C175.847 59.76 176.519 63.024 176.519 66.672C176.519 69.456 176.135 72.288 175.367 75.168C174.599 78.048 173.495 80.832 172.055 83.52C170.615 86.208 168.887 88.704 166.871 91.008C164.855 93.312 162.647 95.28 160.247 96.912C163.223 100.08 165.335 103.536 166.583 107.28C167.927 110.928 168.647 114.624 168.743 118.368C168.839 122.112 168.359 125.76 167.303 129.312C166.343 132.864 165.047 136.032 163.415 138.816H163.559C167.591 138.816 170.999 137.472 173.783 134.784C176.567 132.096 178.727 128.496 180.263 123.984ZM128.711 82.224C130.151 81.648 131.639 81.36 133.175 81.36C134.711 81.264 136.151 81.312 137.495 81.504C138.935 81.696 140.183 82.032 141.239 82.512C142.391 82.992 143.207 83.424 143.687 83.808C145.415 83.136 146.855 82.224 148.007 81.072C149.159 79.824 150.071 78.576 150.743 77.328C151.415 75.984 151.895 74.688 152.183 73.44C152.471 72.096 152.615 70.896 152.615 69.84C152.615 67.44 151.751 65.568 150.023 64.224C148.295 62.784 146.183 61.968 143.687 61.776C142.055 61.776 140.375 61.968 138.647 62.352C136.919 62.736 135.191 63.36 133.463 64.224C131.831 65.088 130.295 66.192 128.855 67.536C127.415 68.88 126.263 70.464 125.399 72.288L108.119 120.096C109.943 119.328 112.103 118.752 114.599 118.368C117.095 117.984 119.495 117.792 121.799 117.792C126.695 117.888 131.015 118.8 134.759 120.528C138.599 122.16 141.815 124.224 144.407 126.72C146.039 122.112 146.471 118.272 145.703 115.2C144.935 112.128 143.159 110.256 140.375 109.584C139.031 110.064 137.399 110.352 135.479 110.448C133.559 110.544 131.591 110.304 129.575 109.728C127.655 109.152 125.831 108.144 124.103 106.704C122.471 105.168 121.223 103.104 120.359 100.512C119.879 98.496 119.783 96.528 120.071 94.608C120.359 92.592 120.887 90.768 121.655 89.136C122.519 87.504 123.575 86.112 124.823 84.96C126.071 83.712 127.367 82.8 128.711 82.224ZM120.215 150.192C122.807 150.192 125.543 149.616 128.423 148.464C131.303 147.312 133.847 145.488 136.055 142.992C134.135 141.072 132.119 139.44 130.007 138.096C127.991 136.656 125.495 135.936 122.519 135.936C119.735 135.936 117.431 136.512 115.607 137.664C113.879 138.816 112.727 140.352 112.151 142.272C111.959 142.752 111.863 143.472 111.863 144.432C111.863 146.064 112.583 147.456 114.023 148.608C115.463 149.664 117.527 150.192 120.215 150.192ZM257.59 125.28C258.454 122.496 259.99 120.624 262.198 119.664C264.502 118.704 266.71 118.464 268.822 118.944C271.03 119.424 272.806 120.528 274.15 122.256C275.59 123.888 275.878 126 275.014 128.592C272.422 136.08 269.542 142.32 266.374 147.312C263.206 152.208 259.894 156.144 256.438 159.12C252.982 162 249.478 164.016 245.926 165.168C242.374 166.416 238.87 167.04 235.414 167.04C231.094 167.04 227.11 166.128 223.462 164.304C219.814 162.576 216.934 160.176 214.822 157.104C212.134 159.984 208.966 162.384 205.318 164.304C201.766 166.224 197.83 167.184 193.51 167.184C190.438 167.184 187.606 166.704 185.014 165.744C182.422 164.784 180.118 163.44 178.102 161.712C176.182 159.984 174.694 157.92 173.638 155.52C172.486 153.12 171.91 150.48 171.91 147.6C171.91 145.104 172.342 142.56 173.206 139.968L190.918 90.432C191.782 87.936 192.982 86.064 194.518 84.816C196.15 83.472 197.83 82.656 199.558 82.368C201.382 82.08 203.158 82.224 204.886 82.8C206.614 83.376 208.054 84.336 209.206 85.68C210.454 86.928 211.27 88.512 211.654 90.432C212.038 92.256 211.798 94.32 210.934 96.624L194.374 141.984C193.894 143.616 193.654 144.96 193.654 146.016C193.654 148.416 194.758 149.616 196.966 149.616C198.406 149.616 199.894 149.232 201.43 148.464C202.966 147.696 204.502 146.688 206.038 145.44C207.574 144.096 208.966 142.56 210.214 140.832C211.558 139.104 212.758 137.232 213.814 135.216L229.654 90.576C230.998 86.832 233.014 84.384 235.702 83.232C238.39 81.984 240.982 81.792 243.478 82.656C245.974 83.424 247.942 85.008 249.382 87.408C250.822 89.712 250.966 92.496 249.814 95.76L232.678 144.288C232.39 145.056 232.246 145.776 232.246 146.448C232.246 147.504 232.63 148.368 233.398 149.04C234.166 149.616 235.222 149.904 236.566 149.904C239.83 149.904 243.334 147.984 247.078 144.144C250.822 140.208 254.326 133.92 257.59 125.28ZM333.055 124.992C333.919 122.304 335.503 120.432 337.807 119.376C340.111 118.224 342.367 117.888 344.575 118.368C346.879 118.752 348.703 119.808 350.047 121.536C351.391 123.264 351.535 125.568 350.479 128.448C347.983 135.456 345.151 141.408 341.983 146.304C338.911 151.2 335.599 155.184 332.047 158.256C328.591 161.232 324.991 163.392 321.247 164.736C317.503 166.08 313.807 166.752 310.159 166.752C307.087 166.752 304.159 166.272 301.375 165.312C298.591 164.448 296.095 163.152 293.887 161.424C291.775 159.696 290.095 157.584 288.847 155.088C287.599 152.496 286.975 149.52 286.975 146.16C286.975 142.992 287.599 139.824 288.847 136.656L299.071 108C299.263 107.328 299.407 106.704 299.503 106.128C299.695 105.456 299.791 104.88 299.791 104.4C299.791 103.056 299.359 102 298.495 101.232C297.727 100.368 296.671 99.936 295.327 99.936C293.311 99.936 291.103 100.8 288.703 102.528C286.399 104.256 284.287 106.944 282.367 110.592C281.119 114.048 279.775 117.792 278.335 121.824C276.991 125.76 275.599 129.792 274.159 133.92C272.719 137.952 271.279 141.984 269.839 146.016C268.399 149.952 267.055 153.648 265.807 157.104C265.039 159.408 263.887 161.28 262.351 162.72C260.815 164.16 259.135 165.216 257.311 165.888C255.583 166.56 253.807 166.8 251.983 166.608C250.159 166.512 248.623 165.984 247.375 165.024C246.031 164.16 245.071 162.912 244.495 161.28C243.919 159.552 243.967 157.488 244.639 155.088L268.687 87.696C269.263 85.68 270.415 84.192 272.143 83.232C273.871 82.272 275.695 81.792 277.615 81.792C279.631 81.696 281.455 82.032 283.087 82.8C284.815 83.568 285.919 84.624 286.399 85.968C290.239 83.76 294.847 82.656 300.223 82.656C303.103 82.656 305.839 83.136 308.431 84.096C311.023 85.056 313.279 86.4 315.199 88.128C317.119 89.76 318.655 91.776 319.807 94.176C320.959 96.576 321.535 99.216 321.535 102.096C321.535 104.4 321.007 107.04 319.951 110.016L320.095 109.872L308.719 141.984C308.239 143.616 307.999 144.816 307.999 145.584C307.999 148.176 309.343 149.472 312.031 149.472C315.391 149.472 318.943 147.552 322.687 143.712C326.431 139.872 329.887 133.632 333.055 124.992ZM398.055 123.84C398.919 121.248 400.455 119.52 402.663 118.656C404.967 117.792 407.175 117.648 409.287 118.224C411.399 118.8 413.127 120 414.471 121.824C415.815 123.552 416.007 125.712 415.047 128.304C412.743 134.832 409.767 140.496 406.119 145.296C402.471 150.096 398.343 154.08 393.735 157.248C389.223 160.416 384.375 162.768 379.191 164.304C374.007 165.84 368.775 166.608 363.495 166.608C358.215 166.608 353.367 165.888 348.951 164.448C344.631 163.008 340.887 161.04 337.719 158.544C334.647 156.048 332.247 153.072 330.519 149.616C328.791 146.064 327.927 142.224 327.927 138.096C327.927 134.832 328.503 131.472 329.655 128.016L337.863 103.824C339.111 100.08 340.791 96.816 342.903 94.032C345.111 91.248 347.511 88.992 350.103 87.264C352.791 85.44 355.623 84.096 358.599 83.232C361.671 82.368 364.743 81.936 367.815 81.936C371.751 81.936 375.303 82.8 378.471 84.528C381.735 86.256 384.327 88.608 386.247 91.584C388.263 94.56 389.463 97.968 389.847 101.808C390.327 105.648 389.799 109.728 388.263 114.048C386.631 118.272 384.375 121.008 381.495 122.256C378.711 123.408 376.071 123.552 373.575 122.688C371.175 121.824 369.351 120.24 368.103 117.936C366.855 115.536 366.951 112.896 368.391 110.016C369.735 107.52 370.215 105.36 369.831 103.536C369.447 101.712 368.151 100.704 365.943 100.512C364.695 100.416 363.447 100.896 362.199 101.952C360.951 102.912 359.991 104.304 359.319 106.128V105.984L350.391 131.04C349.815 132.96 349.527 134.688 349.527 136.224C349.527 139.872 350.967 142.944 353.847 145.44C356.823 147.936 360.807 149.184 365.799 149.184C368.487 149.184 371.319 148.752 374.295 147.888C377.367 146.928 380.343 145.44 383.223 143.424C386.103 141.408 388.839 138.816 391.431 135.648C394.023 132.384 396.231 128.448 398.055 123.84ZM474.846 124.704C475.71 121.824 477.294 119.904 479.598 118.944C481.902 117.984 484.11 117.744 486.222 118.224C488.43 118.704 490.206 119.856 491.55 121.68C492.894 123.408 493.134 125.52 492.27 128.016C489.678 135.504 486.798 141.744 483.63 146.736C480.462 151.632 477.15 155.568 473.694 158.544C470.238 161.424 466.686 163.44 463.038 164.592C459.486 165.84 455.982 166.464 452.526 166.464C449.454 166.464 446.478 166.032 443.598 165.168C440.814 164.304 438.318 163.008 436.11 161.28C433.902 159.552 432.126 157.392 430.782 154.8C429.438 152.208 428.766 149.232 428.766 145.872C428.766 142.992 429.342 139.824 430.494 136.368V136.512L440.862 106.992C441.246 106.224 441.438 105.36 441.438 104.4C441.438 103.056 440.958 101.952 439.998 101.088C439.134 100.128 437.982 99.648 436.542 99.648C434.334 99.648 432.078 100.56 429.774 102.384C427.566 104.208 425.694 106.512 424.158 109.296L406.878 157.824C405.438 161.664 403.374 164.16 400.686 165.312C397.998 166.56 395.454 166.752 393.054 165.888C390.654 165.024 388.782 163.248 387.438 160.56C386.094 157.776 386.142 154.368 387.582 150.336L421.278 56.016C422.238 52.944 423.534 50.544 425.166 48.816C426.798 47.088 428.526 45.984 430.35 45.504C432.174 44.928 433.95 44.928 435.678 45.504C437.406 45.984 438.798 46.944 439.854 48.384C441.006 49.728 441.726 51.504 442.014 53.712C442.302 55.92 441.87 58.416 440.718 61.2L432.942 83.952C435.822 82.704 438.894 82.08 442.158 82.08C445.038 82.08 447.726 82.608 450.222 83.664C452.814 84.72 455.022 86.16 456.846 87.984C458.766 89.808 460.254 91.968 461.31 94.464C462.366 96.96 462.894 99.648 462.894 102.528C462.894 105.024 462.462 107.616 461.598 110.304L449.79 143.712C449.502 144.288 449.358 144.912 449.358 145.584C449.358 146.64 449.742 147.552 450.51 148.32C451.374 148.992 452.478 149.328 453.822 149.328C457.086 149.328 460.59 147.408 464.334 143.568C468.174 139.632 471.678 133.344 474.846 124.704Z" fill="#F9A27D" fill-opacity="0.45"/>
<path d="M173.263 116.984C173.935 114.584 175.327 112.952 177.439 112.088C179.647 111.224 181.807 111.032 183.919 111.512C186.127 111.896 187.951 112.904 189.391 114.536C190.831 116.168 191.215 118.232 190.543 120.728C189.295 125.144 187.519 129.176 185.215 132.824C183.007 136.376 180.367 139.448 177.295 142.04C174.223 144.536 170.815 146.504 167.071 147.944C163.327 149.288 159.343 149.96 155.119 149.96C151.759 149.96 148.735 149.528 146.047 148.664C141.727 153.176 136.783 156.392 131.215 158.312C125.743 160.328 120.271 161.336 114.799 161.336C111.919 161.336 109.087 161.048 106.303 160.472C103.615 159.992 101.071 159.224 98.6713 158.168C96.2713 157.208 94.0633 156.008 92.0473 154.568C90.1273 153.128 88.5433 151.496 87.2953 149.672C86.7193 152.648 85.6633 155 84.1273 156.728C82.6873 158.552 81.0073 159.8 79.0873 160.472C77.2633 161.144 75.3913 161.288 73.4713 160.904C71.5512 160.616 69.9672 159.848 68.7192 158.6C67.3752 157.448 66.4632 155.864 65.9832 153.848C65.5032 151.832 65.7912 149.432 66.8472 146.648L104.575 39.944C105.535 36.68 107.215 34.28 109.615 32.744C112.015 31.208 114.415 30.44 116.815 30.44C119.311 30.344 121.471 30.968 123.295 32.312C125.215 33.656 126.175 35.528 126.175 37.928C130.303 35.912 134.143 34.856 137.695 34.76C141.247 34.664 143.983 34.712 145.903 34.904C149.071 35.192 152.047 35.96 154.831 37.208C157.711 38.456 160.207 40.136 162.319 42.248C164.527 44.36 166.255 46.904 167.503 49.88C168.847 52.76 169.519 56.024 169.519 59.672C169.519 62.456 169.135 65.288 168.367 68.168C167.599 71.048 166.495 73.832 165.055 76.52C163.615 79.208 161.887 81.704 159.871 84.008C157.855 86.312 155.647 88.28 153.247 89.912C156.223 93.08 158.335 96.536 159.583 100.28C160.927 103.928 161.647 107.624 161.743 111.368C161.839 115.112 161.359 118.76 160.303 122.312C159.343 125.864 158.047 129.032 156.415 131.816H156.559C160.591 131.816 163.999 130.472 166.783 127.784C169.567 125.096 171.727 121.496 173.263 116.984ZM121.711 75.224C123.151 74.648 124.639 74.36 126.175 74.36C127.711 74.264 129.151 74.312 130.495 74.504C131.935 74.696 133.183 75.032 134.239 75.512C135.391 75.992 136.207 76.424 136.687 76.808C138.415 76.136 139.855 75.224 141.007 74.072C142.159 72.824 143.071 71.576 143.743 70.328C144.415 68.984 144.895 67.688 145.183 66.44C145.471 65.096 145.615 63.896 145.615 62.84C145.615 60.44 144.751 58.568 143.023 57.224C141.295 55.784 139.183 54.968 136.687 54.776C135.055 54.776 133.375 54.968 131.647 55.352C129.919 55.736 128.191 56.36 126.463 57.224C124.831 58.088 123.295 59.192 121.855 60.536C120.415 61.88 119.263 63.464 118.399 65.288L101.119 113.096C102.943 112.328 105.103 111.752 107.599 111.368C110.095 110.984 112.495 110.792 114.799 110.792C119.695 110.888 124.015 111.8 127.759 113.528C131.599 115.16 134.815 117.224 137.407 119.72C139.039 115.112 139.471 111.272 138.703 108.2C137.935 105.128 136.159 103.256 133.375 102.584C132.031 103.064 130.399 103.352 128.479 103.448C126.559 103.544 124.591 103.304 122.575 102.728C120.655 102.152 118.831 101.144 117.103 99.704C115.471 98.168 114.223 96.104 113.359 93.512C112.879 91.496 112.783 89.528 113.071 87.608C113.359 85.592 113.887 83.768 114.655 82.136C115.519 80.504 116.575 79.112 117.823 77.96C119.071 76.712 120.367 75.8 121.711 75.224ZM113.215 143.192C115.807 143.192 118.543 142.616 121.423 141.464C124.303 140.312 126.847 138.488 129.055 135.992C127.135 134.072 125.119 132.44 123.007 131.096C120.991 129.656 118.495 128.936 115.519 128.936C112.735 128.936 110.431 129.512 108.607 130.664C106.879 131.816 105.727 133.352 105.151 135.272C104.959 135.752 104.863 136.472 104.863 137.432C104.863 139.064 105.583 140.456 107.023 141.608C108.463 142.664 110.527 143.192 113.215 143.192ZM250.59 118.28C251.454 115.496 252.99 113.624 255.198 112.664C257.502 111.704 259.71 111.464 261.822 111.944C264.03 112.424 265.806 113.528 267.15 115.256C268.59 116.888 268.878 119 268.014 121.592C265.422 129.08 262.542 135.32 259.374 140.312C256.206 145.208 252.894 149.144 249.438 152.12C245.982 155 242.478 157.016 238.926 158.168C235.374 159.416 231.87 160.04 228.414 160.04C224.094 160.04 220.11 159.128 216.462 157.304C212.814 155.576 209.934 153.176 207.822 150.104C205.134 152.984 201.966 155.384 198.318 157.304C194.766 159.224 190.83 160.184 186.51 160.184C183.438 160.184 180.606 159.704 178.014 158.744C175.422 157.784 173.118 156.44 171.102 154.712C169.182 152.984 167.694 150.92 166.638 148.52C165.486 146.12 164.91 143.48 164.91 140.6C164.91 138.104 165.342 135.56 166.206 132.968L183.918 83.432C184.782 80.936 185.982 79.064 187.518 77.816C189.15 76.472 190.83 75.656 192.558 75.368C194.382 75.08 196.158 75.224 197.886 75.8C199.614 76.376 201.054 77.336 202.206 78.68C203.454 79.928 204.27 81.512 204.654 83.432C205.038 85.256 204.798 87.32 203.934 89.624L187.374 134.984C186.894 136.616 186.654 137.96 186.654 139.016C186.654 141.416 187.758 142.616 189.966 142.616C191.406 142.616 192.894 142.232 194.43 141.464C195.966 140.696 197.502 139.688 199.038 138.44C200.574 137.096 201.966 135.56 203.214 133.832C204.558 132.104 205.758 130.232 206.814 128.216L222.654 83.576C223.998 79.832 226.014 77.384 228.702 76.232C231.39 74.984 233.982 74.792 236.478 75.656C238.974 76.424 240.942 78.008 242.382 80.408C243.822 82.712 243.966 85.496 242.814 88.76L225.678 137.288C225.39 138.056 225.246 138.776 225.246 139.448C225.246 140.504 225.63 141.368 226.398 142.04C227.166 142.616 228.222 142.904 229.566 142.904C232.83 142.904 236.334 140.984 240.078 137.144C243.822 133.208 247.326 126.92 250.59 118.28ZM326.055 117.992C326.919 115.304 328.503 113.432 330.807 112.376C333.111 111.224 335.367 110.888 337.575 111.368C339.879 111.752 341.703 112.808 343.047 114.536C344.391 116.264 344.535 118.568 343.479 121.448C340.983 128.456 338.151 134.408 334.983 139.304C331.911 144.2 328.599 148.184 325.047 151.256C321.591 154.232 317.991 156.392 314.247 157.736C310.503 159.08 306.807 159.752 303.159 159.752C300.087 159.752 297.159 159.272 294.375 158.312C291.591 157.448 289.095 156.152 286.887 154.424C284.775 152.696 283.095 150.584 281.847 148.088C280.599 145.496 279.975 142.52 279.975 139.16C279.975 135.992 280.599 132.824 281.847 129.656L292.071 101C292.263 100.328 292.407 99.704 292.503 99.128C292.695 98.456 292.791 97.88 292.791 97.4C292.791 96.056 292.359 95 291.495 94.232C290.727 93.368 289.671 92.936 288.327 92.936C286.311 92.936 284.103 93.8 281.703 95.528C279.399 97.256 277.287 99.944 275.367 103.592C274.119 107.048 272.775 110.792 271.335 114.824C269.991 118.76 268.599 122.792 267.159 126.92C265.719 130.952 264.279 134.984 262.839 139.016C261.399 142.952 260.055 146.648 258.807 150.104C258.039 152.408 256.887 154.28 255.351 155.72C253.815 157.16 252.135 158.216 250.311 158.888C248.583 159.56 246.807 159.8 244.983 159.608C243.159 159.512 241.623 158.984 240.375 158.024C239.031 157.16 238.071 155.912 237.495 154.28C236.919 152.552 236.967 150.488 237.639 148.088L261.687 80.696C262.263 78.68 263.415 77.192 265.143 76.232C266.871 75.272 268.695 74.792 270.615 74.792C272.631 74.696 274.455 75.032 276.087 75.8C277.815 76.568 278.919 77.624 279.399 78.968C283.239 76.76 287.847 75.656 293.223 75.656C296.103 75.656 298.839 76.136 301.431 77.096C304.023 78.056 306.279 79.4 308.199 81.128C310.119 82.76 311.655 84.776 312.807 87.176C313.959 89.576 314.535 92.216 314.535 95.096C314.535 97.4 314.007 100.04 312.951 103.016L313.095 102.872L301.719 134.984C301.239 136.616 300.999 137.816 300.999 138.584C300.999 141.176 302.343 142.472 305.031 142.472C308.391 142.472 311.943 140.552 315.687 136.712C319.431 132.872 322.887 126.632 326.055 117.992ZM391.055 116.84C391.919 114.248 393.455 112.52 395.663 111.656C397.967 110.792 400.175 110.648 402.287 111.224C404.399 111.8 406.127 113 407.471 114.824C408.815 116.552 409.007 118.712 408.047 121.304C405.743 127.832 402.767 133.496 399.119 138.296C395.471 143.096 391.343 147.08 386.735 150.248C382.223 153.416 377.375 155.768 372.191 157.304C367.007 158.84 361.775 159.608 356.495 159.608C351.215 159.608 346.367 158.888 341.951 157.448C337.631 156.008 333.887 154.04 330.719 151.544C327.647 149.048 325.247 146.072 323.519 142.616C321.791 139.064 320.927 135.224 320.927 131.096C320.927 127.832 321.503 124.472 322.655 121.016L330.863 96.824C332.111 93.08 333.791 89.816 335.903 87.032C338.111 84.248 340.511 81.992 343.103 80.264C345.791 78.44 348.623 77.096 351.599 76.232C354.671 75.368 357.743 74.936 360.815 74.936C364.751 74.936 368.303 75.8 371.471 77.528C374.735 79.256 377.327 81.608 379.247 84.584C381.263 87.56 382.463 90.968 382.847 94.808C383.327 98.648 382.799 102.728 381.263 107.048C379.631 111.272 377.375 114.008 374.495 115.256C371.711 116.408 369.071 116.552 366.575 115.688C364.175 114.824 362.351 113.24 361.103 110.936C359.855 108.536 359.951 105.896 361.391 103.016C362.735 100.52 363.215 98.36 362.831 96.536C362.447 94.712 361.151 93.704 358.943 93.512C357.695 93.416 356.447 93.896 355.199 94.952C353.951 95.912 352.991 97.304 352.319 99.128V98.984L343.391 124.04C342.815 125.96 342.527 127.688 342.527 129.224C342.527 132.872 343.967 135.944 346.847 138.44C349.823 140.936 353.807 142.184 358.799 142.184C361.487 142.184 364.319 141.752 367.295 140.888C370.367 139.928 373.343 138.44 376.223 136.424C379.103 134.408 381.839 131.816 384.431 128.648C387.023 125.384 389.231 121.448 391.055 116.84ZM467.846 117.704C468.71 114.824 470.294 112.904 472.598 111.944C474.902 110.984 477.11 110.744 479.222 111.224C481.43 111.704 483.206 112.856 484.55 114.68C485.894 116.408 486.134 118.52 485.27 121.016C482.678 128.504 479.798 134.744 476.63 139.736C473.462 144.632 470.15 148.568 466.694 151.544C463.238 154.424 459.686 156.44 456.038 157.592C452.486 158.84 448.982 159.464 445.526 159.464C442.454 159.464 439.478 159.032 436.598 158.168C433.814 157.304 431.318 156.008 429.11 154.28C426.902 152.552 425.126 150.392 423.782 147.8C422.438 145.208 421.766 142.232 421.766 138.872C421.766 135.992 422.342 132.824 423.494 129.368V129.512L433.862 99.992C434.246 99.224 434.438 98.36 434.438 97.4C434.438 96.056 433.958 94.952 432.998 94.088C432.134 93.128 430.982 92.648 429.542 92.648C427.334 92.648 425.078 93.56 422.774 95.384C420.566 97.208 418.694 99.512 417.158 102.296L399.878 150.824C398.438 154.664 396.374 157.16 393.686 158.312C390.998 159.56 388.454 159.752 386.054 158.888C383.654 158.024 381.782 156.248 380.438 153.56C379.094 150.776 379.142 147.368 380.582 143.336L414.278 49.016C415.238 45.944 416.534 43.544 418.166 41.816C419.798 40.088 421.526 38.984 423.35 38.504C425.174 37.928 426.95 37.928 428.678 38.504C430.406 38.984 431.798 39.944 432.854 41.384C434.006 42.728 434.726 44.504 435.014 46.712C435.302 48.92 434.87 51.416 433.718 54.2L425.942 76.952C428.822 75.704 431.894 75.08 435.158 75.08C438.038 75.08 440.726 75.608 443.222 76.664C445.814 77.72 448.022 79.16 449.846 80.984C451.766 82.808 453.254 84.968 454.31 87.464C455.366 89.96 455.894 92.648 455.894 95.528C455.894 98.024 455.462 100.616 454.598 103.304L442.79 136.712C442.502 137.288 442.358 137.912 442.358 138.584C442.358 139.64 442.742 140.552 443.51 141.32C444.374 141.992 445.478 142.328 446.822 142.328C450.086 142.328 453.59 140.408 457.334 136.568C461.174 132.632 464.678 126.344 467.846 117.704Z" fill="#3DA294"/>
</svg>
