<?xml version="1.0" encoding="utf-8"?>
<!-- Generator: Adobe Illustrator 25.4.1, SVG Export Plug-In . SVG Version: 6.00 Build 0)  -->
<svg version="1.1" id="Layer_1" xmlns="http://www.w3.org/2000/svg" xmlns:xlink="http://www.w3.org/1999/xlink" x="0px" y="0px"
	 viewBox="0 0 546 197" style="enable-background:new 0 0 546 197;" xml:space="preserve">
<style type="text/css">
	.st0{fill:#B0D5CD;}
	.st1{fill:#F9A27D;fill-opacity:0.45;}
</style>
<path class="st0" d="M217.82,61.38c-2.57,0-4.86-0.38-6.88-1.15c-2.02-0.77-3.59-1.85-4.73-3.24c-1.14-1.43-1.71-3.06-1.71-4.9
	c0-0.33,0.04-0.83,0.11-1.49h10.4c-0.04,1.03,0.27,1.81,0.93,2.37c0.66,0.55,1.58,0.82,2.75,0.82c0.92,0,1.67-0.18,2.25-0.55
	c0.62-0.37,0.94-0.84,0.94-1.43c0-0.7-0.39-1.23-1.15-1.59c-0.77-0.4-2.05-0.9-3.85-1.49c-2.09-0.66-3.81-1.3-5.17-1.92
	c-1.36-0.62-2.55-1.54-3.57-2.75c-0.99-1.21-1.49-2.77-1.49-4.68c0-1.83,0.53-3.48,1.6-4.95c1.1-1.47,2.64-2.6,4.62-3.41
	c1.98-0.84,4.27-1.26,6.88-1.26c2.79,0,5.19,0.48,7.21,1.43c2.05,0.92,3.57,2.2,4.57,3.85c1.03,1.65,1.49,3.48,1.38,5.5h-9.68
	c0.04-0.99-0.26-1.76-0.88-2.31c-0.62-0.59-1.52-0.88-2.69-0.88c-0.84,0-1.54,0.18-2.09,0.55c-0.55,0.37-0.82,0.84-0.82,1.43
	c0,0.7,0.38,1.25,1.15,1.65c0.81,0.4,2.14,0.92,4.01,1.54c2.05,0.66,3.76,1.32,5.11,1.98c1.39,0.62,2.59,1.52,3.57,2.69
	c0.99,1.14,1.49,2.6,1.49,4.4c0,3.04-1.32,5.44-3.96,7.2C225.47,60.52,222.04,61.38,217.82,61.38z M249.96,61.38
	c-2.68,0-5.06-0.53-7.15-1.59c-2.05-1.06-3.65-2.57-4.79-4.51c-1.14-1.94-1.71-4.22-1.71-6.82c0-3.52,0.82-6.71,2.48-9.57
	c1.69-2.86,4-5.1,6.93-6.71c2.93-1.61,6.21-2.42,9.85-2.42c2.68,0,5.04,0.53,7.1,1.59c2.09,1.06,3.7,2.58,4.84,4.56
	c1.17,1.94,1.76,4.22,1.76,6.82c0,3.56-0.84,6.76-2.53,9.62c-1.69,2.82-4,5.04-6.93,6.65C256.87,60.6,253.59,61.38,249.96,61.38z
	 M251.61,52.09c1.28,0,2.42-0.4,3.41-1.21c1.03-0.81,1.8-1.85,2.31-3.14c0.55-1.28,0.82-2.6,0.82-3.96c0-1.54-0.4-2.71-1.21-3.52
	c-0.77-0.81-1.78-1.21-3.02-1.21c-1.32,0-2.48,0.4-3.47,1.21c-0.95,0.81-1.7,1.85-2.25,3.14c-0.51,1.28-0.77,2.62-0.77,4.01
	c0,1.54,0.38,2.71,1.15,3.52C249.36,51.71,250.37,52.09,251.61,52.09z M271.56,45.54c0.59-3.23,1.74-6.01,3.47-8.36
	c1.76-2.38,3.92-4.22,6.49-5.5c2.6-1.28,5.43-1.92,8.47-1.92c3.92,0,7.04,1.08,9.35,3.25c2.31,2.13,3.52,5.11,3.63,8.97h-11.49
	c-0.29-2.02-1.41-3.03-3.35-3.03c-1.36,0-2.53,0.57-3.52,1.71c-0.99,1.1-1.67,2.73-2.04,4.89c-0.15,0.73-0.22,1.47-0.22,2.2
	c0,1.47,0.31,2.59,0.94,3.35c0.62,0.73,1.47,1.1,2.53,1.1c1.98,0,3.43-1.01,4.35-3.03h11.49c-1.43,3.81-3.68,6.8-6.77,8.97
	c-3.04,2.16-6.54,3.24-10.51,3.24c-4.03,0-7.24-1.1-9.62-3.3c-2.35-2.2-3.52-5.22-3.52-9.08C271.23,47.91,271.34,46.76,271.56,45.54
	z M315.42,27.28c-1.69,0-3.02-0.42-4.01-1.26c-0.95-0.84-1.43-1.93-1.43-3.25c0-1.17,0.31-2.25,0.93-3.24
	c0.66-1.03,1.54-1.83,2.64-2.42c1.14-0.62,2.4-0.94,3.79-0.94c1.69,0,3.01,0.44,3.96,1.32c0.99,0.84,1.48,1.94,1.48,3.3
	c0,1.17-0.33,2.25-0.99,3.25c-0.62,0.99-1.5,1.78-2.64,2.36C318.02,26.99,316.78,27.28,315.42,27.28z M320.26,30.15L314.82,61
	h-10.83l5.5-30.85H320.26z M321.89,45.54c0.59-3.19,1.67-5.98,3.24-8.36c1.58-2.38,3.46-4.22,5.66-5.5
	c2.24-1.28,4.58-1.92,7.04-1.92c2.13,0,3.89,0.42,5.28,1.26c1.39,0.84,2.36,1.98,2.92,3.41l0.77-4.29h10.78L352.14,61h-10.78
	l0.77-4.29c-1.06,1.43-2.46,2.57-4.18,3.41c-1.72,0.84-3.63,1.26-5.72,1.26c-3.23,0-5.81-1.06-7.76-3.19
	c-1.94-2.16-2.92-5.1-2.92-8.8C321.56,48.19,321.67,46.9,321.89,45.54z M344.11,45.54c0.11-0.55,0.17-1.06,0.17-1.54
	c0-1.54-0.44-2.73-1.32-3.58c-0.84-0.84-1.94-1.26-3.3-1.26c-1.61,0-3.06,0.57-4.35,1.7c-1.28,1.1-2.09,2.66-2.42,4.67
	c-0.11,0.55-0.17,1.08-0.17,1.6c0,1.54,0.42,2.73,1.26,3.58c0.88,0.84,2,1.26,3.36,1.26c1.61,0,3.06-0.57,4.35-1.7
	C342.97,49.14,343.78,47.56,344.11,45.54z M376.32,20.3l-7.2,40.7h-10.84l7.21-40.7H376.32z"/>
<path class="st1" d="M184.26,115.98c0.67-2.4,2.06-4.03,4.18-4.9c2.21-0.86,4.37-1.06,6.48-0.58c2.21,0.38,4.03,1.39,5.47,3.02
	c1.44,1.63,1.82,3.7,1.15,6.19c-1.25,4.42-3.02,8.45-5.33,12.1c-2.21,3.55-4.85,6.62-7.92,9.22c-3.07,2.5-6.48,4.46-10.22,5.9
	c-3.74,1.34-7.73,2.02-11.95,2.02c-3.36,0-6.38-0.43-9.07-1.3c-4.32,4.51-9.26,7.73-14.83,9.65c-5.47,2.02-10.94,3.02-16.42,3.02
	c-2.88,0-5.71-0.29-8.5-0.86c-2.69-0.48-5.23-1.25-7.63-2.3c-2.4-0.96-4.61-2.16-6.62-3.6c-1.92-1.44-3.5-3.07-4.75-4.9
	c-0.58,2.98-1.63,5.33-3.17,7.06c-1.44,1.82-3.12,3.07-5.04,3.74c-1.82,0.67-3.7,0.82-5.62,0.43c-1.92-0.29-3.5-1.06-4.75-2.3
	c-1.34-1.15-2.26-2.74-2.74-4.75c-0.48-2.02-0.19-4.42,0.86-7.2l37.73-106.7c0.96-3.26,2.64-5.66,5.04-7.2s4.8-2.3,7.2-2.3
	c2.5-0.1,4.66,0.53,6.48,1.87c1.92,1.34,2.88,3.22,2.88,5.62c4.13-2.02,7.97-3.07,11.52-3.17c3.55-0.1,6.29-0.05,8.21,0.14
	c3.17,0.29,6.14,1.06,8.93,2.3c2.88,1.25,5.38,2.93,7.49,5.04c2.21,2.11,3.94,4.66,5.18,7.63c1.34,2.88,2.02,6.14,2.02,9.79
	c0,2.78-0.38,5.62-1.15,8.5c-0.77,2.88-1.87,5.66-3.31,8.35c-1.44,2.69-3.17,5.18-5.18,7.49c-2.02,2.3-4.22,4.27-6.62,5.9
	c2.98,3.17,5.09,6.62,6.34,10.37c1.34,3.65,2.06,7.34,2.16,11.09c0.1,3.74-0.38,7.39-1.44,10.94c-0.96,3.55-2.26,6.72-3.89,9.5h0.14
	c4.03,0,7.44-1.34,10.22-4.03C180.57,124.1,182.73,120.5,184.26,115.98z M132.71,74.22c1.44-0.58,2.93-0.86,4.46-0.86
	c1.54-0.1,2.98-0.05,4.32,0.14c1.44,0.19,2.69,0.53,3.74,1.01c1.15,0.48,1.97,0.91,2.45,1.3c1.73-0.67,3.17-1.58,4.32-2.74
	c1.15-1.25,2.06-2.5,2.74-3.74c0.67-1.34,1.15-2.64,1.44-3.89c0.29-1.34,0.43-2.54,0.43-3.6c0-2.4-0.86-4.27-2.59-5.62
	c-1.73-1.44-3.84-2.26-6.34-2.45c-1.63,0-3.31,0.19-5.04,0.58c-1.73,0.38-3.46,1.01-5.18,1.87c-1.63,0.86-3.17,1.97-4.61,3.31
	c-1.44,1.34-2.59,2.93-3.46,4.75l-17.28,47.81c1.82-0.77,3.98-1.34,6.48-1.73c2.5-0.38,4.9-0.58,7.2-0.58
	c4.9,0.1,9.22,1.01,12.96,2.74c3.84,1.63,7.06,3.7,9.65,6.19c1.63-4.61,2.06-8.45,1.3-11.52c-0.77-3.07-2.54-4.94-5.33-5.62
	c-1.34,0.48-2.98,0.77-4.9,0.86s-3.89-0.14-5.9-0.72c-1.92-0.58-3.74-1.58-5.47-3.02c-1.63-1.54-2.88-3.6-3.74-6.19
	c-0.48-2.02-0.58-3.98-0.29-5.9c0.29-2.02,0.82-3.84,1.58-5.47c0.86-1.63,1.92-3.02,3.17-4.18
	C130.07,75.71,131.37,74.8,132.71,74.22z M124.21,142.19c2.59,0,5.33-0.58,8.21-1.73c2.88-1.15,5.42-2.98,7.63-5.47
	c-1.92-1.92-3.94-3.55-6.05-4.9c-2.02-1.44-4.51-2.16-7.49-2.16c-2.78,0-5.09,0.58-6.91,1.73c-1.73,1.15-2.88,2.69-3.46,4.61
	c-0.19,0.48-0.29,1.2-0.29,2.16c0,1.63,0.72,3.02,2.16,4.18C119.46,141.66,121.53,142.19,124.21,142.19z M261.59,117.28
	c0.86-2.78,2.4-4.66,4.61-5.62c2.3-0.96,4.51-1.2,6.62-0.72c2.21,0.48,3.98,1.58,5.33,3.31c1.44,1.63,1.73,3.74,0.86,6.34
	c-2.59,7.49-5.47,13.73-8.64,18.72c-3.17,4.9-6.48,8.83-9.94,11.81c-3.46,2.88-6.96,4.9-10.51,6.05c-3.55,1.25-7.06,1.87-10.51,1.87
	c-4.32,0-8.3-0.91-11.95-2.74c-3.65-1.73-6.53-4.13-8.64-7.2c-2.69,2.88-5.86,5.28-9.5,7.2c-3.55,1.92-7.49,2.88-11.81,2.88
	c-3.07,0-5.9-0.48-8.5-1.44c-2.59-0.96-4.9-2.3-6.91-4.03c-1.92-1.73-3.41-3.79-4.46-6.19c-1.15-2.4-1.73-5.04-1.73-7.92
	c0-2.5,0.43-5.04,1.3-7.63l17.71-49.54c0.86-2.5,2.06-4.37,3.6-5.62c1.63-1.34,3.31-2.16,5.04-2.45c1.82-0.29,3.6-0.14,5.33,0.43
	c1.73,0.58,3.17,1.54,4.32,2.88c1.25,1.25,2.06,2.83,2.45,4.75c0.38,1.82,0.14,3.89-0.72,6.19l-16.56,45.36
	c-0.48,1.63-0.72,2.98-0.72,4.03c0,2.4,1.1,3.6,3.31,3.6c1.44,0,2.93-0.38,4.46-1.15c1.54-0.77,3.07-1.78,4.61-3.02
	c1.54-1.34,2.93-2.88,4.18-4.61c1.34-1.73,2.54-3.6,3.6-5.62l15.84-44.64c1.34-3.74,3.36-6.19,6.05-7.34
	c2.69-1.25,5.28-1.44,7.78-0.58c2.5,0.77,4.46,2.35,5.9,4.75c1.44,2.3,1.58,5.09,0.43,8.35l-17.14,48.53
	c-0.29,0.77-0.43,1.49-0.43,2.16c0,1.06,0.38,1.92,1.15,2.59c0.77,0.58,1.82,0.86,3.17,0.86c3.26,0,6.77-1.92,10.51-5.76
	C254.82,132.21,258.33,125.92,261.59,117.28z M337.05,116.99c0.86-2.69,2.45-4.56,4.75-5.62c2.3-1.15,4.56-1.49,6.77-1.01
	c2.3,0.38,4.13,1.44,5.47,3.17c1.34,1.73,1.49,4.03,0.43,6.91c-2.5,7.01-5.33,12.96-8.5,17.86c-3.07,4.9-6.38,8.88-9.94,11.95
	c-3.46,2.98-7.06,5.14-10.8,6.48c-3.74,1.34-7.44,2.02-11.09,2.02c-3.07,0-6-0.48-8.78-1.44c-2.78-0.86-5.28-2.16-7.49-3.89
	c-2.11-1.73-3.79-3.84-5.04-6.34c-1.25-2.59-1.87-5.57-1.87-8.93c0-3.17,0.62-6.34,1.87-9.5L303.07,100
	c0.19-0.67,0.34-1.3,0.43-1.87c0.19-0.67,0.29-1.25,0.29-1.73c0-1.34-0.43-2.4-1.3-3.17c-0.77-0.86-1.82-1.3-3.17-1.3
	c-2.02,0-4.22,0.86-6.62,2.59c-2.3,1.73-4.42,4.42-6.34,8.06c-1.25,3.46-2.59,7.2-4.03,11.23c-1.34,3.94-2.74,7.97-4.18,12.1
	c-1.44,4.03-2.88,8.06-4.32,12.1c-1.44,3.94-2.78,7.63-4.03,11.09c-0.77,2.3-1.92,4.18-3.46,5.62c-1.54,1.44-3.22,2.5-5.04,3.17
	c-1.73,0.67-3.5,0.91-5.33,0.72c-1.82-0.1-3.36-0.62-4.61-1.58c-1.34-0.86-2.3-2.11-2.88-3.74c-0.58-1.73-0.53-3.79,0.14-6.19
	l24.05-67.39c0.58-2.02,1.73-3.5,3.46-4.46s3.55-1.44,5.47-1.44c2.02-0.1,3.84,0.24,5.47,1.01c1.73,0.77,2.83,1.82,3.31,3.17
	c3.84-2.21,8.45-3.31,13.82-3.31c2.88,0,5.62,0.48,8.21,1.44s4.85,2.3,6.77,4.03c1.92,1.63,3.46,3.65,4.61,6.05
	c1.15,2.4,1.73,5.04,1.73,7.92c0,2.3-0.53,4.94-1.58,7.92l0.14-0.14l-11.38,32.11c-0.48,1.63-0.72,2.83-0.72,3.6
	c0,2.59,1.34,3.89,4.03,3.89c3.36,0,6.91-1.92,10.66-5.76C330.43,131.87,333.89,125.63,337.05,116.99z M402.05,115.84
	c0.86-2.59,2.4-4.32,4.61-5.18c2.3-0.86,4.51-1.01,6.62-0.43c2.11,0.58,3.84,1.78,5.18,3.6c1.34,1.73,1.54,3.89,0.58,6.48
	c-2.3,6.53-5.28,12.19-8.93,16.99c-3.65,4.8-7.78,8.78-12.38,11.95c-4.51,3.17-9.36,5.52-14.54,7.06c-5.18,1.54-10.42,2.3-15.7,2.3
	s-10.13-0.72-14.54-2.16c-4.32-1.44-8.06-3.41-11.23-5.9c-3.07-2.5-5.47-5.47-7.2-8.93c-1.73-3.55-2.59-7.39-2.59-11.52
	c0-3.26,0.58-6.62,1.73-10.08l8.21-24.19c1.25-3.74,2.93-7.01,5.04-9.79c2.21-2.78,4.61-5.04,7.2-6.77c2.69-1.82,5.52-3.17,8.5-4.03
	c3.07-0.86,6.14-1.3,9.22-1.3c3.94,0,7.49,0.86,10.66,2.59c3.26,1.73,5.86,4.08,7.78,7.06c2.02,2.98,3.22,6.38,3.6,10.22
	c0.48,3.84-0.05,7.92-1.58,12.24c-1.63,4.22-3.89,6.96-6.77,8.21c-2.78,1.15-5.42,1.3-7.92,0.43c-2.4-0.86-4.22-2.45-5.47-4.75
	c-1.25-2.4-1.15-5.04,0.29-7.92c1.34-2.5,1.82-4.66,1.44-6.48c-0.38-1.82-1.68-2.83-3.89-3.02c-1.25-0.1-2.5,0.38-3.74,1.44
	c-1.25,0.96-2.21,2.35-2.88,4.18v-0.14l-8.93,25.06c-0.58,1.92-0.86,3.65-0.86,5.18c0,3.65,1.44,6.72,4.32,9.22
	c2.98,2.5,6.96,3.74,11.95,3.74c2.69,0,5.52-0.43,8.5-1.3c3.07-0.96,6.05-2.45,8.93-4.46c2.88-2.02,5.62-4.61,8.21-7.78
	C398.02,124.38,400.23,120.45,402.05,115.84z M478.85,116.7c0.86-2.88,2.45-4.8,4.75-5.76c2.3-0.96,4.51-1.2,6.62-0.72
	c2.21,0.48,3.98,1.63,5.33,3.46c1.34,1.73,1.58,3.84,0.72,6.34c-2.59,7.49-5.47,13.73-8.64,18.72c-3.17,4.9-6.48,8.83-9.94,11.81
	c-3.46,2.88-7.01,4.9-10.66,6.05c-3.55,1.25-7.06,1.87-10.51,1.87c-3.07,0-6.05-0.43-8.93-1.3c-2.78-0.86-5.28-2.16-7.49-3.89
	c-2.21-1.73-3.98-3.89-5.33-6.48c-1.34-2.59-2.02-5.57-2.02-8.93c0-2.88,0.58-6.05,1.73-9.5v0.14l10.37-29.52
	c0.38-0.77,0.58-1.63,0.58-2.59c0-1.34-0.48-2.45-1.44-3.31c-0.86-0.96-2.02-1.44-3.46-1.44c-2.21,0-4.46,0.91-6.77,2.74
	c-2.21,1.82-4.08,4.13-5.62,6.91l-17.28,48.53c-1.44,3.84-3.5,6.34-6.19,7.49c-2.69,1.25-5.23,1.44-7.63,0.58
	c-2.4-0.86-4.27-2.64-5.62-5.33c-1.34-2.78-1.3-6.19,0.14-10.22l33.7-94.32c0.96-3.07,2.26-5.47,3.89-7.2
	c1.63-1.73,3.36-2.83,5.18-3.31c1.82-0.58,3.6-0.58,5.33,0c1.73,0.48,3.12,1.44,4.18,2.88c1.15,1.34,1.87,3.12,2.16,5.33
	c0.29,2.21-0.14,4.7-1.3,7.49l-7.78,22.75c2.88-1.25,5.95-1.87,9.22-1.87c2.88,0,5.57,0.53,8.06,1.58c2.59,1.06,4.8,2.5,6.62,4.32
	c1.92,1.82,3.41,3.98,4.46,6.48c1.06,2.5,1.58,5.18,1.58,8.06c0,2.5-0.43,5.09-1.3,7.78l-11.81,33.41c-0.29,0.58-0.43,1.2-0.43,1.87
	c0,1.06,0.38,1.97,1.15,2.74c0.86,0.67,1.97,1.01,3.31,1.01c3.26,0,6.77-1.92,10.51-5.76C472.17,131.63,475.68,125.34,478.85,116.7z
	"/>
<path class="st1" d="M180.26,123.98c0.67-2.4,2.06-4.03,4.18-4.9c2.21-0.86,4.37-1.06,6.48-0.58c2.21,0.38,4.03,1.39,5.47,3.02
	c1.44,1.63,1.82,3.7,1.15,6.19c-1.25,4.42-3.02,8.45-5.33,12.1c-2.21,3.55-4.85,6.62-7.92,9.22c-3.07,2.5-6.48,4.46-10.22,5.9
	c-3.74,1.34-7.73,2.02-11.95,2.02c-3.36,0-6.38-0.43-9.07-1.3c-4.32,4.51-9.26,7.73-14.83,9.65c-5.47,2.02-10.94,3.02-16.42,3.02
	c-2.88,0-5.71-0.29-8.5-0.86c-2.69-0.48-5.23-1.25-7.63-2.3c-2.4-0.96-4.61-2.16-6.62-3.6c-1.92-1.44-3.5-3.07-4.75-4.9
	c-0.58,2.98-1.63,5.33-3.17,7.06c-1.44,1.82-3.12,3.07-5.04,3.74c-1.82,0.67-3.7,0.82-5.62,0.43c-1.92-0.29-3.5-1.06-4.75-2.3
	c-1.34-1.15-2.26-2.74-2.74-4.75c-0.48-2.02-0.19-4.42,0.86-7.2l37.73-106.7c0.96-3.26,2.64-5.66,5.04-7.2s4.8-2.3,7.2-2.3
	c2.5-0.1,4.66,0.53,6.48,1.87c1.92,1.34,2.88,3.22,2.88,5.62c4.13-2.02,7.97-3.07,11.52-3.17c3.55-0.1,6.29-0.05,8.21,0.14
	c3.17,0.29,6.14,1.06,8.93,2.3c2.88,1.25,5.38,2.93,7.49,5.04c2.21,2.11,3.94,4.66,5.18,7.63c1.34,2.88,2.02,6.14,2.02,9.79
	c0,2.78-0.38,5.62-1.15,8.5c-0.77,2.88-1.87,5.66-3.31,8.35c-1.44,2.69-3.17,5.18-5.18,7.49c-2.02,2.3-4.22,4.27-6.62,5.9
	c2.98,3.17,5.09,6.62,6.34,10.37c1.34,3.65,2.06,7.34,2.16,11.09c0.1,3.74-0.38,7.39-1.44,10.94c-0.96,3.55-2.26,6.72-3.89,9.5h0.14
	c4.03,0,7.44-1.34,10.22-4.03C176.57,132.1,178.73,128.5,180.26,123.98z M128.71,82.22c1.44-0.58,2.93-0.86,4.46-0.86
	c1.54-0.1,2.98-0.05,4.32,0.14c1.44,0.19,2.69,0.53,3.74,1.01c1.15,0.48,1.97,0.91,2.45,1.3c1.73-0.67,3.17-1.58,4.32-2.74
	c1.15-1.25,2.06-2.5,2.74-3.74c0.67-1.34,1.15-2.64,1.44-3.89c0.29-1.34,0.43-2.54,0.43-3.6c0-2.4-0.86-4.27-2.59-5.62
	c-1.73-1.44-3.84-2.26-6.34-2.45c-1.63,0-3.31,0.19-5.04,0.58c-1.73,0.38-3.46,1.01-5.18,1.87c-1.63,0.86-3.17,1.97-4.61,3.31
	c-1.44,1.34-2.59,2.93-3.46,4.75l-17.28,47.81c1.82-0.77,3.98-1.34,6.48-1.73c2.5-0.38,4.9-0.58,7.2-0.58
	c4.9,0.1,9.22,1.01,12.96,2.74c3.84,1.63,7.06,3.7,9.65,6.19c1.63-4.61,2.06-8.45,1.3-11.52c-0.77-3.07-2.54-4.94-5.33-5.62
	c-1.34,0.48-2.98,0.77-4.9,0.86s-3.89-0.14-5.9-0.72c-1.92-0.58-3.74-1.58-5.47-3.02c-1.63-1.54-2.88-3.6-3.74-6.19
	c-0.48-2.02-0.58-3.98-0.29-5.9c0.29-2.02,0.82-3.84,1.58-5.47c0.86-1.63,1.92-3.02,3.17-4.18
	C126.07,83.71,127.37,82.8,128.71,82.22z M120.21,150.19c2.59,0,5.33-0.58,8.21-1.73c2.88-1.15,5.42-2.98,7.63-5.47
	c-1.92-1.92-3.94-3.55-6.05-4.9c-2.02-1.44-4.51-2.16-7.49-2.16c-2.78,0-5.09,0.58-6.91,1.73c-1.73,1.15-2.88,2.69-3.46,4.61
	c-0.19,0.48-0.29,1.2-0.29,2.16c0,1.63,0.72,3.02,2.16,4.18C115.46,149.66,117.53,150.19,120.21,150.19z M257.59,125.28
	c0.86-2.78,2.4-4.66,4.61-5.62c2.3-0.96,4.51-1.2,6.62-0.72c2.21,0.48,3.98,1.58,5.33,3.31c1.44,1.63,1.73,3.74,0.86,6.34
	c-2.59,7.49-5.47,13.73-8.64,18.72c-3.17,4.9-6.48,8.83-9.94,11.81c-3.46,2.88-6.96,4.9-10.51,6.05c-3.55,1.25-7.06,1.87-10.51,1.87
	c-4.32,0-8.3-0.91-11.95-2.74c-3.65-1.73-6.53-4.13-8.64-7.2c-2.69,2.88-5.86,5.28-9.5,7.2c-3.55,1.92-7.49,2.88-11.81,2.88
	c-3.07,0-5.9-0.48-8.5-1.44c-2.59-0.96-4.9-2.3-6.91-4.03c-1.92-1.73-3.41-3.79-4.46-6.19c-1.15-2.4-1.73-5.04-1.73-7.92
	c0-2.5,0.43-5.04,1.3-7.63l17.71-49.54c0.86-2.5,2.06-4.37,3.6-5.62c1.63-1.34,3.31-2.16,5.04-2.45c1.82-0.29,3.6-0.14,5.33,0.43
	c1.73,0.58,3.17,1.54,4.32,2.88c1.25,1.25,2.06,2.83,2.45,4.75c0.38,1.82,0.14,3.89-0.72,6.19l-16.56,45.36
	c-0.48,1.63-0.72,2.98-0.72,4.03c0,2.4,1.1,3.6,3.31,3.6c1.44,0,2.93-0.38,4.46-1.15c1.54-0.77,3.07-1.78,4.61-3.02
	c1.54-1.34,2.93-2.88,4.18-4.61c1.34-1.73,2.54-3.6,3.6-5.62l15.84-44.64c1.34-3.74,3.36-6.19,6.05-7.34
	c2.69-1.25,5.28-1.44,7.78-0.58c2.5,0.77,4.46,2.35,5.9,4.75c1.44,2.3,1.58,5.09,0.43,8.35l-17.14,48.53
	c-0.29,0.77-0.43,1.49-0.43,2.16c0,1.06,0.38,1.92,1.15,2.59c0.77,0.58,1.82,0.86,3.17,0.86c3.26,0,6.77-1.92,10.51-5.76
	C250.82,140.21,254.33,133.92,257.59,125.28z M333.05,124.99c0.86-2.69,2.45-4.56,4.75-5.62c2.3-1.15,4.56-1.49,6.77-1.01
	c2.3,0.38,4.13,1.44,5.47,3.17c1.34,1.73,1.49,4.03,0.43,6.91c-2.5,7.01-5.33,12.96-8.5,17.86c-3.07,4.9-6.38,8.88-9.94,11.95
	c-3.46,2.98-7.06,5.14-10.8,6.48c-3.74,1.34-7.44,2.02-11.09,2.02c-3.07,0-6-0.48-8.78-1.44c-2.78-0.86-5.28-2.16-7.49-3.89
	c-2.11-1.73-3.79-3.84-5.04-6.34c-1.25-2.59-1.87-5.57-1.87-8.93c0-3.17,0.62-6.34,1.87-9.5L299.07,108
	c0.19-0.67,0.34-1.3,0.43-1.87c0.19-0.67,0.29-1.25,0.29-1.73c0-1.34-0.43-2.4-1.3-3.17c-0.77-0.86-1.82-1.3-3.17-1.3
	c-2.02,0-4.22,0.86-6.62,2.59c-2.3,1.73-4.42,4.42-6.34,8.06c-1.25,3.46-2.59,7.2-4.03,11.23c-1.34,3.94-2.74,7.97-4.18,12.1
	c-1.44,4.03-2.88,8.06-4.32,12.1c-1.44,3.94-2.78,7.63-4.03,11.09c-0.77,2.3-1.92,4.18-3.46,5.62c-1.54,1.44-3.22,2.5-5.04,3.17
	c-1.73,0.67-3.5,0.91-5.33,0.72c-1.82-0.1-3.36-0.62-4.61-1.58c-1.34-0.86-2.3-2.11-2.88-3.74c-0.58-1.73-0.53-3.79,0.14-6.19
	l24.05-67.39c0.58-2.02,1.73-3.5,3.46-4.46s3.55-1.44,5.47-1.44c2.02-0.1,3.84,0.24,5.47,1.01c1.73,0.77,2.83,1.82,3.31,3.17
	c3.84-2.21,8.45-3.31,13.82-3.31c2.88,0,5.62,0.48,8.21,1.44s4.85,2.3,6.77,4.03c1.92,1.63,3.46,3.65,4.61,6.05
	c1.15,2.4,1.73,5.04,1.73,7.92c0,2.3-0.53,4.94-1.58,7.92l0.14-0.14l-11.38,32.11c-0.48,1.63-0.72,2.83-0.72,3.6
	c0,2.59,1.34,3.89,4.03,3.89c3.36,0,6.91-1.92,10.66-5.76C326.43,139.87,329.89,133.63,333.05,124.99z M398.05,123.84
	c0.86-2.59,2.4-4.32,4.61-5.18c2.3-0.86,4.51-1.01,6.62-0.43c2.11,0.58,3.84,1.78,5.18,3.6c1.34,1.73,1.54,3.89,0.58,6.48
	c-2.3,6.53-5.28,12.19-8.93,16.99c-3.65,4.8-7.78,8.78-12.38,11.95c-4.51,3.17-9.36,5.52-14.54,7.06c-5.18,1.54-10.42,2.3-15.7,2.3
	s-10.13-0.72-14.54-2.16c-4.32-1.44-8.06-3.41-11.23-5.9c-3.07-2.5-5.47-5.47-7.2-8.93c-1.73-3.55-2.59-7.39-2.59-11.52
	c0-3.26,0.58-6.62,1.73-10.08l8.21-24.19c1.25-3.74,2.93-7.01,5.04-9.79c2.21-2.78,4.61-5.04,7.2-6.77c2.69-1.82,5.52-3.17,8.5-4.03
	c3.07-0.86,6.14-1.3,9.22-1.3c3.94,0,7.49,0.86,10.66,2.59c3.26,1.73,5.86,4.08,7.78,7.06c2.02,2.98,3.22,6.38,3.6,10.22
	c0.48,3.84-0.05,7.92-1.58,12.24c-1.63,4.22-3.89,6.96-6.77,8.21c-2.78,1.15-5.42,1.3-7.92,0.43c-2.4-0.86-4.22-2.45-5.47-4.75
	c-1.25-2.4-1.15-5.04,0.29-7.92c1.34-2.5,1.82-4.66,1.44-6.48c-0.38-1.82-1.68-2.83-3.89-3.02c-1.25-0.1-2.5,0.38-3.74,1.44
	c-1.25,0.96-2.21,2.35-2.88,4.18v-0.14l-8.93,25.06c-0.58,1.92-0.86,3.65-0.86,5.18c0,3.65,1.44,6.72,4.32,9.22
	c2.98,2.5,6.96,3.74,11.95,3.74c2.69,0,5.52-0.43,8.5-1.3c3.07-0.96,6.05-2.45,8.93-4.46c2.88-2.02,5.62-4.61,8.21-7.78
	C394.02,132.38,396.23,128.45,398.05,123.84z M474.85,124.7c0.86-2.88,2.45-4.8,4.75-5.76c2.3-0.96,4.51-1.2,6.62-0.72
	c2.21,0.48,3.98,1.63,5.33,3.46c1.34,1.73,1.58,3.84,0.72,6.34c-2.59,7.49-5.47,13.73-8.64,18.72c-3.17,4.9-6.48,8.83-9.94,11.81
	c-3.46,2.88-7.01,4.9-10.66,6.05c-3.55,1.25-7.06,1.87-10.51,1.87c-3.07,0-6.05-0.43-8.93-1.3c-2.78-0.86-5.28-2.16-7.49-3.89
	c-2.21-1.73-3.98-3.89-5.33-6.48c-1.34-2.59-2.02-5.57-2.02-8.93c0-2.88,0.58-6.05,1.73-9.5v0.14l10.37-29.52
	c0.38-0.77,0.58-1.63,0.58-2.59c0-1.34-0.48-2.45-1.44-3.31c-0.86-0.96-2.02-1.44-3.46-1.44c-2.21,0-4.46,0.91-6.77,2.74
	c-2.21,1.82-4.08,4.13-5.62,6.91l-17.28,48.53c-1.44,3.84-3.5,6.34-6.19,7.49c-2.69,1.25-5.23,1.44-7.63,0.58
	c-2.4-0.86-4.27-2.64-5.62-5.33c-1.34-2.78-1.3-6.19,0.14-10.22l33.7-94.32c0.96-3.07,2.26-5.47,3.89-7.2
	c1.63-1.73,3.36-2.83,5.18-3.31c1.82-0.58,3.6-0.58,5.33,0c1.73,0.48,3.12,1.44,4.18,2.88c1.15,1.34,1.87,3.12,2.16,5.33
	c0.29,2.21-0.14,4.7-1.3,7.49l-7.78,22.75c2.88-1.25,5.95-1.87,9.22-1.87c2.88,0,5.57,0.53,8.06,1.58c2.59,1.06,4.8,2.5,6.62,4.32
	c1.92,1.82,3.41,3.98,4.46,6.48c1.06,2.5,1.58,5.18,1.58,8.06c0,2.5-0.43,5.09-1.3,7.78l-11.81,33.41c-0.29,0.58-0.43,1.2-0.43,1.87
	c0,1.06,0.38,1.97,1.15,2.74c0.86,0.67,1.97,1.01,3.31,1.01c3.26,0,6.77-1.92,10.51-5.76C468.17,139.63,471.68,133.34,474.85,124.7z
	"/>
<path class="st0" d="M173.26,116.98c0.67-2.4,2.06-4.03,4.18-4.9c2.21-0.86,4.37-1.06,6.48-0.58c2.21,0.38,4.03,1.39,5.47,3.02
	c1.44,1.63,1.82,3.7,1.15,6.19c-1.25,4.42-3.02,8.45-5.33,12.1c-2.21,3.55-4.85,6.62-7.92,9.22c-3.07,2.5-6.48,4.46-10.22,5.9
	c-3.74,1.34-7.73,2.02-11.95,2.02c-3.36,0-6.38-0.43-9.07-1.3c-4.32,4.51-9.26,7.73-14.83,9.65c-5.47,2.02-10.94,3.02-16.42,3.02
	c-2.88,0-5.71-0.29-8.5-0.86c-2.69-0.48-5.23-1.25-7.63-2.3c-2.4-0.96-4.61-2.16-6.62-3.6c-1.92-1.44-3.5-3.07-4.75-4.9
	c-0.58,2.98-1.63,5.33-3.17,7.06c-1.44,1.82-3.12,3.07-5.04,3.74c-1.82,0.67-3.7,0.82-5.62,0.43c-1.92-0.29-3.5-1.06-4.75-2.3
	c-1.34-1.15-2.26-2.74-2.74-4.75c-0.48-2.02-0.19-4.42,0.86-7.2l37.73-106.7c0.96-3.26,2.64-5.66,5.04-7.2s4.8-2.3,7.2-2.3
	c2.5-0.1,4.66,0.53,6.48,1.87c1.92,1.34,2.88,3.22,2.88,5.62c4.13-2.02,7.97-3.07,11.52-3.17c3.55-0.1,6.29-0.05,8.21,0.14
	c3.17,0.29,6.14,1.06,8.93,2.3c2.88,1.25,5.38,2.93,7.49,5.04c2.21,2.11,3.94,4.66,5.18,7.63c1.34,2.88,2.02,6.14,2.02,9.79
	c0,2.78-0.38,5.62-1.15,8.5c-0.77,2.88-1.87,5.66-3.31,8.35c-1.44,2.69-3.17,5.18-5.18,7.49c-2.02,2.3-4.22,4.27-6.62,5.9
	c2.98,3.17,5.09,6.62,6.34,10.37c1.34,3.65,2.06,7.34,2.16,11.09c0.1,3.74-0.38,7.39-1.44,10.94c-0.96,3.55-2.26,6.72-3.89,9.5h0.14
	c4.03,0,7.44-1.34,10.22-4.03C169.57,125.1,171.73,121.5,173.26,116.98z M121.71,75.22c1.44-0.58,2.93-0.86,4.46-0.86
	c1.54-0.1,2.98-0.05,4.32,0.14c1.44,0.19,2.69,0.53,3.74,1.01c1.15,0.48,1.97,0.91,2.45,1.3c1.73-0.67,3.17-1.58,4.32-2.74
	c1.15-1.25,2.06-2.5,2.74-3.74c0.67-1.34,1.15-2.64,1.44-3.89c0.29-1.34,0.43-2.54,0.43-3.6c0-2.4-0.86-4.27-2.59-5.62
	c-1.73-1.44-3.84-2.26-6.34-2.45c-1.63,0-3.31,0.19-5.04,0.58c-1.73,0.38-3.46,1.01-5.18,1.87c-1.63,0.86-3.17,1.97-4.61,3.31
	c-1.44,1.34-2.59,2.93-3.46,4.75l-17.28,47.81c1.82-0.77,3.98-1.34,6.48-1.73c2.5-0.38,4.9-0.58,7.2-0.58
	c4.9,0.1,9.22,1.01,12.96,2.74c3.84,1.63,7.06,3.7,9.65,6.19c1.63-4.61,2.06-8.45,1.3-11.52c-0.77-3.07-2.54-4.94-5.33-5.62
	c-1.34,0.48-2.98,0.77-4.9,0.86c-1.92,0.1-3.89-0.14-5.9-0.72c-1.92-0.58-3.74-1.58-5.47-3.02c-1.63-1.54-2.88-3.6-3.74-6.19
	c-0.48-2.02-0.58-3.98-0.29-5.9c0.29-2.02,0.82-3.84,1.58-5.47c0.86-1.63,1.92-3.02,3.17-4.18
	C119.07,76.71,120.37,75.8,121.71,75.22z M113.21,143.19c2.59,0,5.33-0.58,8.21-1.73c2.88-1.15,5.42-2.98,7.63-5.47
	c-1.92-1.92-3.94-3.55-6.05-4.9c-2.02-1.44-4.51-2.16-7.49-2.16c-2.78,0-5.09,0.58-6.91,1.73c-1.73,1.15-2.88,2.69-3.46,4.61
	c-0.19,0.48-0.29,1.2-0.29,2.16c0,1.63,0.72,3.02,2.16,4.18C108.46,142.66,110.53,143.19,113.21,143.19z M250.59,118.28
	c0.86-2.78,2.4-4.66,4.61-5.62c2.3-0.96,4.51-1.2,6.62-0.72c2.21,0.48,3.98,1.58,5.33,3.31c1.44,1.63,1.73,3.74,0.86,6.34
	c-2.59,7.49-5.47,13.73-8.64,18.72c-3.17,4.9-6.48,8.83-9.94,11.81c-3.46,2.88-6.96,4.9-10.51,6.05c-3.55,1.25-7.06,1.87-10.51,1.87
	c-4.32,0-8.3-0.91-11.95-2.74c-3.65-1.73-6.53-4.13-8.64-7.2c-2.69,2.88-5.86,5.28-9.5,7.2c-3.55,1.92-7.49,2.88-11.81,2.88
	c-3.07,0-5.9-0.48-8.5-1.44c-2.59-0.96-4.9-2.3-6.91-4.03c-1.92-1.73-3.41-3.79-4.46-6.19c-1.15-2.4-1.73-5.04-1.73-7.92
	c0-2.5,0.43-5.04,1.3-7.63l17.71-49.54c0.86-2.5,2.06-4.37,3.6-5.62c1.63-1.34,3.31-2.16,5.04-2.45c1.82-0.29,3.6-0.14,5.33,0.43
	c1.73,0.58,3.17,1.54,4.32,2.88c1.25,1.25,2.06,2.83,2.45,4.75c0.38,1.82,0.14,3.89-0.72,6.19l-16.56,45.36
	c-0.48,1.63-0.72,2.98-0.72,4.03c0,2.4,1.1,3.6,3.31,3.6c1.44,0,2.93-0.38,4.46-1.15c1.54-0.77,3.07-1.78,4.61-3.02
	c1.54-1.34,2.93-2.88,4.18-4.61c1.34-1.73,2.54-3.6,3.6-5.62l15.84-44.64c1.34-3.74,3.36-6.19,6.05-7.34
	c2.69-1.25,5.28-1.44,7.78-0.58c2.5,0.77,4.46,2.35,5.9,4.75c1.44,2.3,1.58,5.09,0.43,8.35l-17.14,48.53
	c-0.29,0.77-0.43,1.49-0.43,2.16c0,1.06,0.38,1.92,1.15,2.59c0.77,0.58,1.82,0.86,3.17,0.86c3.26,0,6.77-1.92,10.51-5.76
	C243.82,133.21,247.33,126.92,250.59,118.28z M326.05,117.99c0.86-2.69,2.45-4.56,4.75-5.62c2.3-1.15,4.56-1.49,6.77-1.01
	c2.3,0.38,4.13,1.44,5.47,3.17c1.34,1.73,1.49,4.03,0.43,6.91c-2.5,7.01-5.33,12.96-8.5,17.86c-3.07,4.9-6.38,8.88-9.94,11.95
	c-3.46,2.98-7.06,5.14-10.8,6.48c-3.74,1.34-7.44,2.02-11.09,2.02c-3.07,0-6-0.48-8.78-1.44c-2.78-0.86-5.28-2.16-7.49-3.89
	c-2.11-1.73-3.79-3.84-5.04-6.34c-1.25-2.59-1.87-5.57-1.87-8.93c0-3.17,0.62-6.34,1.87-9.5L292.07,101
	c0.19-0.67,0.34-1.3,0.43-1.87c0.19-0.67,0.29-1.25,0.29-1.73c0-1.34-0.43-2.4-1.3-3.17c-0.77-0.86-1.82-1.3-3.17-1.3
	c-2.02,0-4.22,0.86-6.62,2.59c-2.3,1.73-4.42,4.42-6.34,8.06c-1.25,3.46-2.59,7.2-4.03,11.23c-1.34,3.94-2.74,7.97-4.18,12.1
	c-1.44,4.03-2.88,8.06-4.32,12.1c-1.44,3.94-2.78,7.63-4.03,11.09c-0.77,2.3-1.92,4.18-3.46,5.62s-3.22,2.5-5.04,3.17
	c-1.73,0.67-3.5,0.91-5.33,0.72c-1.82-0.1-3.36-0.62-4.61-1.58c-1.34-0.86-2.3-2.11-2.88-3.74c-0.58-1.73-0.53-3.79,0.14-6.19
	l24.05-67.39c0.58-2.02,1.73-3.5,3.46-4.46s3.55-1.44,5.47-1.44c2.02-0.1,3.84,0.24,5.47,1.01c1.73,0.77,2.83,1.82,3.31,3.17
	c3.84-2.21,8.45-3.31,13.82-3.31c2.88,0,5.62,0.48,8.21,1.44s4.85,2.3,6.77,4.03c1.92,1.63,3.46,3.65,4.61,6.05
	c1.15,2.4,1.73,5.04,1.73,7.92c0,2.3-0.53,4.94-1.58,7.92l0.14-0.14l-11.38,32.11c-0.48,1.63-0.72,2.83-0.72,3.6
	c0,2.59,1.34,3.89,4.03,3.89c3.36,0,6.91-1.92,10.66-5.76C319.43,132.87,322.89,126.63,326.05,117.99z M391.05,116.84
	c0.86-2.59,2.4-4.32,4.61-5.18c2.3-0.86,4.51-1.01,6.62-0.43c2.11,0.58,3.84,1.78,5.18,3.6c1.34,1.73,1.54,3.89,0.58,6.48
	c-2.3,6.53-5.28,12.19-8.93,16.99c-3.65,4.8-7.78,8.78-12.38,11.95c-4.51,3.17-9.36,5.52-14.54,7.06c-5.18,1.54-10.42,2.3-15.7,2.3
	s-10.13-0.72-14.54-2.16c-4.32-1.44-8.06-3.41-11.23-5.9c-3.07-2.5-5.47-5.47-7.2-8.93c-1.73-3.55-2.59-7.39-2.59-11.52
	c0-3.26,0.58-6.62,1.73-10.08l8.21-24.19c1.25-3.74,2.93-7.01,5.04-9.79c2.21-2.78,4.61-5.04,7.2-6.77c2.69-1.82,5.52-3.17,8.5-4.03
	c3.07-0.86,6.14-1.3,9.22-1.3c3.94,0,7.49,0.86,10.66,2.59c3.26,1.73,5.86,4.08,7.78,7.06c2.02,2.98,3.22,6.38,3.6,10.22
	c0.48,3.84-0.05,7.92-1.58,12.24c-1.63,4.22-3.89,6.96-6.77,8.21c-2.78,1.15-5.42,1.3-7.92,0.43c-2.4-0.86-4.22-2.45-5.47-4.75
	c-1.25-2.4-1.15-5.04,0.29-7.92c1.34-2.5,1.82-4.66,1.44-6.48c-0.38-1.82-1.68-2.83-3.89-3.02c-1.25-0.1-2.5,0.38-3.74,1.44
	c-1.25,0.96-2.21,2.35-2.88,4.18v-0.14l-8.93,25.06c-0.58,1.92-0.86,3.65-0.86,5.18c0,3.65,1.44,6.72,4.32,9.22
	c2.98,2.5,6.96,3.74,11.95,3.74c2.69,0,5.52-0.43,8.5-1.3c3.07-0.96,6.05-2.45,8.93-4.46c2.88-2.02,5.62-4.61,8.21-7.78
	C387.02,125.38,389.23,121.45,391.05,116.84z M467.85,117.7c0.86-2.88,2.45-4.8,4.75-5.76c2.3-0.96,4.51-1.2,6.62-0.72
	c2.21,0.48,3.98,1.63,5.33,3.46c1.34,1.73,1.58,3.84,0.72,6.34c-2.59,7.49-5.47,13.73-8.64,18.72c-3.17,4.9-6.48,8.83-9.94,11.81
	c-3.46,2.88-7.01,4.9-10.66,6.05c-3.55,1.25-7.06,1.87-10.51,1.87c-3.07,0-6.05-0.43-8.93-1.3c-2.78-0.86-5.28-2.16-7.49-3.89
	c-2.21-1.73-3.98-3.89-5.33-6.48c-1.34-2.59-2.02-5.57-2.02-8.93c0-2.88,0.58-6.05,1.73-9.5v0.14l10.37-29.52
	c0.38-0.77,0.58-1.63,0.58-2.59c0-1.34-0.48-2.45-1.44-3.31c-0.86-0.96-2.02-1.44-3.46-1.44c-2.21,0-4.46,0.91-6.77,2.74
	c-2.21,1.82-4.08,4.13-5.62,6.91l-17.28,48.53c-1.44,3.84-3.5,6.34-6.19,7.49c-2.69,1.25-5.23,1.44-7.63,0.58
	c-2.4-0.86-4.27-2.64-5.62-5.33c-1.34-2.78-1.3-6.19,0.14-10.22l33.7-94.32c0.96-3.07,2.26-5.47,3.89-7.2
	c1.63-1.73,3.36-2.83,5.18-3.31c1.82-0.58,3.6-0.58,5.33,0c1.73,0.48,3.12,1.44,4.18,2.88c1.15,1.34,1.87,3.12,2.16,5.33
	c0.29,2.21-0.14,4.7-1.3,7.49l-7.78,22.75c2.88-1.25,5.95-1.87,9.22-1.87c2.88,0,5.57,0.53,8.06,1.58c2.59,1.06,4.8,2.5,6.62,4.32
	c1.92,1.82,3.41,3.98,4.46,6.48c1.06,2.5,1.58,5.18,1.58,8.06c0,2.5-0.43,5.09-1.3,7.78l-11.81,33.41c-0.29,0.58-0.43,1.2-0.43,1.87
	c0,1.06,0.38,1.97,1.15,2.74c0.86,0.67,1.97,1.01,3.31,1.01c3.26,0,6.77-1.92,10.51-5.76C461.17,132.63,464.68,126.34,467.85,117.7z
	"/>
</svg>
